<svg width="20" height="21" viewBox="0 0 20 21" fill="none" xmlns="http://www.w3.org/2000/svg">
<path d="M13.3583 8.85854C13.6023 8.61449 13.6023 8.21876 13.3583 7.97468C13.1142 7.73061 12.7185 7.73061 12.4744 7.97468L8.74967 11.6994L7.52495 10.4747C7.28087 10.2306 6.88514 10.2306 6.64106 10.4747C6.39699 10.7188 6.39699 11.1145 6.64106 11.3585L8.30773 13.0252C8.55184 13.2693 8.94751 13.2693 9.19159 13.0252L13.3583 8.85854Z" fill="#1C274C"/>
<path fill-rule="evenodd" clip-rule="evenodd" d="M10.0003 1.54163C5.05278 1.54163 1.04199 5.55241 1.04199 10.5C1.04199 15.4475 5.05278 19.4583 10.0003 19.4583C14.9479 19.4583 18.9587 15.4475 18.9587 10.5C18.9587 5.55241 14.9479 1.54163 10.0003 1.54163ZM2.29199 10.5C2.29199 6.24277 5.74313 2.79163 10.0003 2.79163C14.2575 2.79163 17.7087 6.24277 17.7087 10.5C17.7087 14.7571 14.2575 18.2083 10.0003 18.2083C5.74313 18.2083 2.29199 14.7571 2.29199 10.5Z" fill="#1C274C"/>
</svg>
