<svg width="42" height="42" viewBox="0 0 42 42" fill="none" xmlns="http://www.w3.org/2000/svg">
<path d="M33.6551 8.34225C31.9958 5.7841 29.7237 3.68106 27.0451 2.22418C24.3665 0.767304 21.3664 0.00275747 18.3173 0C13.4612 0.00486334 8.80532 1.93591 5.3713 5.36944C1.93728 8.80297 0.0055593 13.4585 0 18.3146C0.00216689 21.3649 0.766698 24.3663 2.22409 27.0459C3.68147 29.7255 5.7855 31.9983 8.34488 33.6577C10.0042 36.2159 12.2763 38.3189 14.9549 39.7758C17.6335 41.2327 20.6336 41.9972 23.6828 42C28.5388 41.9951 33.1947 40.0641 36.6287 36.6306C40.0627 33.197 41.9944 28.5415 42 23.6854C41.9978 20.6351 41.2333 17.6337 39.7759 14.9541C38.3185 12.2745 36.2145 10.0017 33.6551 8.34225ZM34.0042 18.3173C34.0001 22.4769 32.3462 26.4651 29.4053 29.4069C26.4645 32.3487 22.4769 34.0039 18.3173 34.0095C14.1564 34.0046 10.1675 32.3494 7.2256 29.407C4.28371 26.4647 2.62917 22.4754 2.625 18.3146C2.62986 14.1545 4.2848 10.1662 7.22669 7.22483C10.1686 4.28343 14.1571 2.62917 18.3173 2.625C22.4767 2.62986 26.4643 4.28452 29.4052 7.22592C32.3461 10.1673 34.0001 14.1578 34.0042 18.3173ZM23.6828 39.375C20.2438 39.3762 16.901 38.2401 14.175 36.1436C15.5293 36.4627 16.9154 36.6265 18.3068 36.6319C23.1624 36.6256 27.8173 34.6936 31.2502 31.2597C34.6832 27.8257 36.6139 23.1703 36.6187 18.3146C36.6186 16.9212 36.4592 15.5323 36.1436 14.175C38.2405 16.9018 39.3766 20.2456 39.375 23.6854C39.3701 27.8455 37.7152 31.8338 34.7733 34.7752C31.8314 37.7166 27.8429 39.3708 23.6828 39.375ZM17.0048 6.5625V7.875H15.75C14.3576 7.875 13.0223 8.42812 12.0377 9.41269C11.0531 10.3973 10.5 11.7326 10.5 13.125C10.5 14.5174 11.0531 15.8527 12.0377 16.8373C13.0223 17.8219 14.3576 18.375 15.75 18.375H17.0048V24.9375H16.4062C15.5364 24.9361 14.7026 24.59 14.0876 23.9749C13.4725 23.3599 13.1264 22.5261 13.125 21.6562C13.125 21.3082 12.9867 20.9743 12.7406 20.7282C12.4944 20.482 12.1606 20.3438 11.8125 20.3438C11.4644 20.3438 11.1306 20.482 10.8844 20.7282C10.6383 20.9743 10.5 21.3082 10.5 21.6562C10.5021 23.222 11.125 24.7231 12.2322 25.8303C13.3394 26.9375 14.8405 27.5604 16.4062 27.5625H17.0048V30.1875C17.0048 30.5356 17.143 30.8694 17.3892 31.1156C17.6353 31.3617 17.9692 31.5 18.3173 31.5C18.6653 31.5 18.9992 31.3617 19.2453 31.1156C19.4915 30.8694 19.6298 30.5356 19.6298 30.1875V27.5625H20.3438C21.9095 27.5604 23.4106 26.9375 24.5178 25.8303C25.625 24.7231 26.2479 23.222 26.25 21.6562C26.2479 20.0905 25.625 18.5894 24.5178 17.4822C23.4106 16.375 21.9095 15.7521 20.3438 15.75H19.6298V10.5H21C21.6962 10.5 22.3639 10.7766 22.8562 11.2688C23.3484 11.7611 23.625 12.4288 23.625 13.125V14.4375C23.625 14.7856 23.7633 15.1194 24.0094 15.3656C24.2556 15.6117 24.5894 15.75 24.9375 15.75C25.2856 15.75 25.6194 15.6117 25.8656 15.3656C26.1117 15.1194 26.25 14.7856 26.25 14.4375V13.125C26.25 11.7326 25.6969 10.3973 24.7123 9.41269C23.7277 8.42812 22.3924 7.875 21 7.875H19.6298V6.5625C19.6298 6.2144 19.4915 5.88056 19.2453 5.63442C18.9992 5.38828 18.6653 5.25 18.3173 5.25C17.9692 5.25 17.6353 5.38828 17.3892 5.63442C17.143 5.88056 17.0048 6.2144 17.0048 6.5625ZM23.625 21.6562C23.6236 22.5261 23.2775 23.3599 22.6624 23.9749C22.0474 24.59 21.2136 24.9361 20.3438 24.9375H19.6298V18.375H20.3438C21.2136 18.3764 22.0474 18.7225 22.6624 19.3376C23.2775 19.9526 23.6236 20.7864 23.625 21.6562ZM17.0048 15.75H15.75C15.0538 15.75 14.3861 15.4734 13.8938 14.9812C13.4016 14.4889 13.125 13.8212 13.125 13.125C13.125 12.4288 13.4016 11.7611 13.8938 11.2688C14.3861 10.7766 15.0538 10.5 15.75 10.5H17.0048V15.75Z" fill="#DFC19F"/>
</svg>
