<svg width="40" height="32" viewBox="0 0 40 32" fill="none" xmlns="http://www.w3.org/2000/svg">
<path fill-rule="evenodd" clip-rule="evenodd" d="M2 0H16C17.0257 0 17.871 0.772081 17.9865 1.76676L18 2V18C18 18.1433 17.9846 18.286 17.9542 18.4256L17.8974 18.6325L13.8974 30.6325C13.6499 31.3749 12.9958 31.8976 12.2321 31.9866L12 32H4C2.71519 32 1.78574 30.8153 2.04074 29.5962L2.10263 29.3675L5.22515 20H2C0.974328 20 0.128986 19.2279 0.0134554 18.2332L0 18V2C0 0.974328 0.77208 0.128986 1.76676 0.0134554L2 0ZM24 0H38C39.0257 0 39.871 0.772081 39.9865 1.76676L40 2V18C40 18.1433 39.9846 18.286 39.9542 18.4256L39.8974 18.6325L35.8974 30.6325C35.6499 31.3749 34.9958 31.8976 34.2321 31.9866L34 32H26C24.7152 32 23.7857 30.8153 24.0407 29.5962L24.1026 29.3675L27.2251 20H24C22.9743 20 22.129 19.2279 22.0135 18.2332L22 18V2C22 0.974328 22.7721 0.128986 23.7668 0.0134554L24 0ZM14 4H4V16H8C9.28481 16 10.2143 17.1847 9.95926 18.4038L9.89737 18.6325L6.77485 28H10.5585L14 17.6754V4ZM36 4H26V16H30C31.2848 16 32.2143 17.1847 31.9593 18.4038L31.8974 18.6325L28.7748 28H32.5585L36 17.6754V4Z" fill="#CDD5DF"/>
</svg>
