<svg width="21" height="20" viewBox="0 0 21 20" fill="none" xmlns="http://www.w3.org/2000/svg">
<path d="M17.8264 7.65203C17.7145 7.31891 17.4262 7.07604 17.079 7.02294L13.0387 6.40552L11.2238 2.53932C11.0691 2.20978 10.7383 2 10.375 2C10.0114 2 9.68092 2.20978 9.52616 2.53932L7.7111 6.40576L3.67073 7.02318C3.32358 7.07627 3.03523 7.31891 2.92356 7.65226C2.81189 7.98562 2.89618 8.35278 3.14167 8.60471L6.09224 11.6304L5.39341 15.9109C5.33578 16.2652 5.48603 16.6214 5.77913 16.8286C6.072 17.0357 6.45868 17.0567 6.77369 16.8829L10.3752 14.8911L13.9768 16.8829C14.1189 16.9614 14.2754 17 14.4311 17C14.6206 17 14.8101 16.9424 14.9713 16.8286C15.2644 16.6216 15.4144 16.2654 15.3568 15.9109L14.658 11.6304L17.6088 8.60471C17.8538 8.35278 17.9381 7.98562 17.8264 7.65203Z" fill="white" stroke="white" stroke-width="2.14062"/>
</svg>
