<svg width="54" height="54" viewBox="0 0 54 54" fill="none" xmlns="http://www.w3.org/2000/svg">
<path d="M26.9998 53.4094C13.6264 53.4094 0.0419922 50.5406 0.0419922 45.0563C0.0419922 40.1625 10.5045 38.1375 14.9764 37.5047H15.1451C15.7779 37.5047 16.3264 37.9688 16.4107 38.6016C16.4529 38.9391 16.3686 39.2766 16.1576 39.5297C15.9467 39.7828 15.6514 39.9938 15.3139 40.0359C5.99043 41.3859 2.53105 43.8328 2.53105 45.0984C2.53105 47.4609 12.0654 50.9203 26.9576 50.9203C41.8498 50.9203 51.3842 47.4609 51.3842 45.0984C51.3842 43.8328 47.8826 41.3859 38.4748 40.0359C38.1373 39.9938 37.842 39.825 37.6311 39.5297C37.4201 39.2766 37.3357 38.9391 37.3779 38.6016C37.4623 37.9688 38.0107 37.5047 38.6436 37.5047H38.8123C43.3264 38.1375 53.8732 40.1625 53.8732 45.0563C53.9154 50.4984 40.3732 53.4094 26.9998 53.4094ZM26.1139 44.4656C25.4811 43.875 10.8842 30.0797 10.8842 16.5375C10.8842 7.67813 18.0982 0.464066 26.9576 0.464066C35.817 0.464066 43.0311 7.67813 43.0311 16.5375C43.0311 29.7 28.4342 43.8328 27.8014 44.4234L26.9576 45.2672L26.1139 44.4656ZM26.9998 2.99532C19.5326 2.99532 13.4576 9.07032 13.4576 16.5375C13.4576 27.1266 23.7936 38.475 26.9998 41.7234C30.2482 38.3906 40.5842 26.8313 40.5842 16.5375C40.542 9.1125 34.467 2.99532 26.9998 2.99532ZM26.9998 23.7094C22.7811 23.7094 19.3639 20.2922 19.3639 16.0734C19.3639 11.8547 22.7811 8.4375 26.9998 8.4375C31.2186 8.4375 34.6357 11.8547 34.6357 16.0734C34.6357 20.2922 31.2186 23.7094 26.9998 23.7094ZM26.9998 10.9688C24.1732 10.9688 21.8951 13.2469 21.8951 16.0734C21.8951 18.9 24.1732 21.1781 26.9998 21.1781C29.8264 21.1781 32.1045 18.9 32.1045 16.0734C32.1045 13.2469 29.7842 10.9688 26.9998 10.9688Z" fill="#D5AF84"/>
</svg>
